#!OML:ASF X:\für Bonn\!DataBase\2005_08_10_Bjorn_Final\c3d\bjorn.ASF
:FULLY-SPECIFIED
:DEGREES
266
root 7.12567 18.8545 0.232021 450.076 84.0912 -635.141
lowerback -0.833678 1.66703 -8.17691
upperback 5.26199 3.18023 -5.94967
thorax 5.92376 1.48144 -1.46477
lowerneck -4.48948 -1.80898 4.37721
upperneck -3.91857 -2.51234 -0.0732191
head -0.51768 -1.28037 -0.763051
rclavicle -3.97569e-016 1.27222e-014
rhumerus -33.5935 -18.5204 -81.3694
rradius 26.6443
rwrist 6.07319
rhand -14.4857 11.1132
rfingers 7.12502
rthumb 11.6607 -18.5424
lclavicle -3.97569e-016 1.27222e-014
lhumerus -35.8255 -2.56139 81.6345
lradius 32.0428
lwrist -16.3045
lhand -11.9606 -1.7695
lfingers 7.12502
lthumb 14.0949 27.7325
rfemur -0.235749 -2.61831 6.20474
rtibia 24.3392
rfoot -21.6811 17.8309
rtoes -1.80237
lfemur -13.613 19.9079 -25.1256
ltibia 34.0674
lfoot -17.6886 -23.8265
ltoes 9.56349
267
root 7.14324 18.8576 0.232774 451.215 84.3478 -633.892
lowerback -0.773163 1.56594 -8.14401
upperback 5.34675 3.0422 -5.89531
thorax 5.98193 1.4105 -1.43489
lowerneck -4.8 -1.71451 4.35632
upperneck -3.61371 -2.40682 -0.0830498
head -0.370603 -1.22337 -0.766572
rclavicle -1.35174e-014 -1.27222e-014
rhumerus -33.6212 -19.1838 -81.2023
rradius 26.26
rwrist 6.15693
rhand -15.0462 10.7772
rfingers 7.12502
rthumb 11.1201 -18.9081
lclavicle -1.35174e-014 -1.27222e-014
lhumerus -35.1866 -1.3725 81.306
lradius 31.0845
lwrist -21.0567
lhand -13.1474 -1.67893
lfingers 7.12502
lthumb 12.9511 27.8991
rfemur -0.227415 -2.18043 6.60793
rtibia 24.7369
rfoot -21.783 17.1479
rtoes -2.09891
lfemur -13.3918 20.4382 -24.7161
ltibia 33.9859
lfoot -17.4535 -24.6574
ltoes 9.96653
268
root 7.16063 18.8635 0.233383 452.568 84.584 -632.439
lowerback -0.692578 1.46272 -8.12508
upperback 5.42371 2.89935 -5.84872
thorax 6.0205 1.33762 -1.40637
lowerneck -5.08669 -1.62863 4.32554
upperneck -3.34651 -2.30955 -0.0674612
head -0.238967 -1.17073 -0.760167
rclavicle 2.3059e-014 -3.33958e-014
rhumerus -33.6475 -19.8455 -81.0557
rradius 25.8697
rwrist 6.22545
rhand -15.6003 10.329
rfingers 7.12502
rthumb 10.5857 -19.3844
lclavicle 2.3059e-014 -3.33958e-014
lhumerus -34.4687 -0.0351805 80.895
lradius 30.035
lwrist -25.8503
lhand -14.0545 -1.63972
lfingers 7.12502
lthumb 12.0766 27.9918
rfemur -0.327318 -1.82035 6.97528
rtibia 25.3091
rfoot -21.796 16.5562
rtoes -2.46446
lfemur -13.149 20.8239 -24.3455
ltibia 33.8476
lfoot -17.2521 -25.3294
ltoes 10.2061
269
root 7.17828 18.8726 0.233517 453.827 84.8171 -631.098
lowerback -0.602142 1.36865 -8.09178
upperback 5.48369 2.76428 -5.80159
thorax 6.03532 1.26986 -1.38488
lowerneck -5.46826 -1.53335 4.29028
upperneck -2.94024 -2.20771 -0.0825864
head -0.0492578 -1.11439 -0.764644
rclavicle 9.14409e-015 3.97569e-014
rhumerus -33.7101 -20.3204 -80.9683
rradius 25.5346
rwrist 6.11074
rhand -16.1471 9.85296
rfingers 7.12502
rthumb 10.0583 -19.8867
lclavicle 9.14409e-015 3.97569e-014
lhumerus -33.7068 1.4275 80.4425
lradius 28.9567
lwrist -30.4637
lhand -14.4989 -1.79476
lfingers 7.12502
lthumb 11.648 27.8615
rfemur -0.570522 -1.4851 7.32998
rtibia 26.091
rfoot -21.7961 15.9867
rtoes -3.06369
lfemur -12.879 21.0403 -23.9944
ltibia 33.6283
lfoot -16.9537 -25.8512
ltoes 10.6623
270
root 7.19502 18.8864 0.233788 455.676 85.0235 -629.213
lowerback -0.494276 1.25631 -8.07418
upperback 5.51264 2.60076 -5.76955
thorax 6.0081 1.18925 -1.3723
lowerneck -5.84077 -1.44898 4.27958
upperneck -2.52532 -2.12128 -0.100012
head 0.141645 -1.06603 -0.774498
rclavicle 6.75868e-015 2.22639e-014
rhumerus -33.7796 -20.7036 -80.9419
rradius 25.1917
rwrist 5.91881
rhand -16.663 9.46401
rfingers 7.12502
rthumb 9.56049 -20.2991
lclavicle 6.75868e-015 2.22639e-014
lhumerus -32.9599 2.91355 79.9618
lradius 27.9385
lwrist -34.6154
lhand -14.5377 -2.19004
lfingers 7.12502
lthumb 11.6106 27.4683
rfemur -0.98694 -1.26907 7.64555
rtibia 27.099
rfoot -21.6407 15.5075
rtoes -3.68808
lfemur -12.6359 21.1835 -23.6956
ltibia 33.3333
lfoot -16.7545 -26.2742
ltoes 10.6297
271
root 7.21301 18.9049 0.232964 457.615 85.2633 -627.276
lowerback -0.423022 1.15108 -8.00507
upperback 5.52574 2.44417 -5.71614
thorax 5.98474 1.11287 -1.36394
lowerneck -6.16634 -1.39371 4.20794
upperneck -2.05711 -2.06968 -0.131034
head 0.342016 -1.03494 -0.779156
rclavicle -1.11319e-014 3.18055e-014
rhumerus -33.8343 -20.8831 -80.9639
rradius 24.9111
rwrist 5.66509
rhand -17.093 9.05704
rfingers 7.12502
rthumb 9.14557 -20.7247
lclavicle -1.11319e-014 3.18055e-014
lhumerus -32.2303 4.33433 79.5668
lradius 27.0073
lwrist -38.1742
lhand -14.283 -2.67946
lfingers 7.12502
lthumb 11.8563 26.9649
rfemur -1.57879 -1.03244 7.9929
rtibia 28.3298
rfoot -21.3587 15.0652
rtoes -4.44058
lfemur -12.3947 21.2756 -23.3831
ltibia 32.9613
lfoot -16.4463 -26.6247
ltoes 10.8269
272
root 7.22955 18.9265 0.232056 460.115 85.5293 -624.81
lowerback -0.354345 1.05339 -7.8809
upperback 5.53315 2.29429 -5.65725
thorax 5.95735 1.04212 -1.37946
lowerneck -6.54314 -1.34749 4.15082
upperneck -1.52771 -2.03353 -0.180358
head 0.570934 -1.0114 -0.793862
rclavicle 1.27222e-014 9.22361e-014
rhumerus -33.9262 -21.0597 -80.9932
rradius 24.7012
rwrist 5.45095
rhand -17.5006 8.78002
rfingers 7.12502
rthumb 8.75231 -21.0185
lclavicle 1.27222e-014 9.22361e-014
lhumerus -31.5261 5.48258 79.3196
lradius 26.2646
lwrist -40.8398
lhand -13.7424 -3.11137
lfingers 7.12502
lthumb 12.3774 26.5022
rfemur -2.32893 -0.942292 8.36165
rtibia 29.7509
rfoot -20.9478 14.6785
rtoes -5.80779
lfemur -12.1734 21.262 -23.0527
ltibia 32.5455
lfoot -16.2131 -26.8233
ltoes 10.7204
273
root 7.24634 18.9483 0.230743 462.73 85.7707 -622.239
lowerback -0.290524 0.94356 -7.79211
upperback 5.54513 2.12928 -5.58074
thorax 5.93633 0.961095 -1.3576
lowerneck -6.90691 -1.27455 4.06753
upperneck -1.01486 -1.95751 -0.243343
head 0.795548 -0.968631 -0.807397
rclavicle 1.19271e-015 -1.11319e-014
rhumerus -33.9767 -21.2436 -80.986
rradius 24.4338
rwrist 5.33144
rhand -17.7632 8.64542
rfingers 7.12502
rthumb 8.49884 -21.1636
lclavicle 1.19271e-015 -1.11319e-014
lhumerus -30.8359 6.55934 79.1675
lradius 25.5731
lwrist -42.8365
lhand -13.1973 -3.49833
lfingers 7.12502
lthumb 12.903 26.0828
rfemur -3.19596 -0.851322 8.6958
rtibia 31.3368
rfoot -20.3983 14.358
rtoes -7.29923
lfemur -11.9405 21.1897 -22.7559
ltibia 32.0912
lfoot -15.964 -26.9776
ltoes 10.7591
274
root 7.26371 18.9703 0.228482 465.741 86.0244 -619.251
lowerback -0.180674 0.855372 -7.62844
upperback 5.54122 1.98466 -5.52266
thorax 5.87316 0.895733 -1.39574
lowerneck -7.24573 -1.21435 3.98395
upperneck -0.457586 -1.89743 -0.263838
head 1.03198 -0.933218 -0.808054
rclavicle -1.07344e-014 6.36111e-015
rhumerus -34.1275 -21.4034 -81.0099
rradius 24.2619
rwrist 5.15819
rhand -17.9043 8.53293
rfingers 7.12502
rthumb 8.36272 -21.2815
lclavicle -1.07344e-014 6.36111e-015
lhumerus -30.2011 7.19555 79.155
lradius 24.9863
lwrist -43.9753
lhand -12.6191 -3.71681
lfingers 7.12502
lthumb 13.4604 25.8283
rfemur -4.13212 -0.882595 9.02945
rtibia 33.0482
rfoot -19.693 14.1637
rtoes -8.72432
lfemur -11.6716 21.0284 -22.4345
ltibia 31.6262
lfoot -15.7749 -26.9777
ltoes 10.7064
275
root 7.28121 18.9898 0.226712 469.355 86.2414 -615.611
lowerback -0.0261139 0.760939 -7.49314
upperback 5.57724 1.83302 -5.45483
thorax 5.82618 0.825054 -1.40906
lowerneck -7.62881 -1.14781 3.9065
upperneck 0.0920263 -1.82877 -0.318481
head 1.27601 -0.89437 -0.820558
rclavicle -3.57812e-015 3.18055e-015
rhumerus -34.2016 -21.4772 -81.0746
rradius 24.0669
rwrist 5.01462
rhand -17.8908 8.52776
rfingers 7.12502
rthumb 8.37577 -21.2862
lclavicle -3.57812e-015 3.18055e-015
lhumerus -29.5099 7.73007 79.2352
lradius 24.4225
lwrist -44.6583
lhand -11.9971 -3.77142
lfingers 7.12502
lthumb 14.0598 25.733
rfemur -5.09258 -0.932374 9.34531
rtibia 34.8646
rfoot -18.9203 13.9995
rtoes -9.76434
lfemur -11.344 20.875 -22.1089
ltibia 31.1509
lfoot -15.5628 -27.0096
ltoes 10.61
276
root 7.29992 19.009 0.224023 473.028 86.4118 -611.88
lowerback 0.155698 0.674798 -7.39267
upperback 5.62786 1.69256 -5.37777
thorax 5.77788 0.758092 -1.39303
lowerneck -8.01272 -1.07744 3.7888
upperneck 0.653266 -1.75003 -0.365916
head 1.52702 -0.850869 -0.823421
rclavicle -2.3059e-014 -1.43125e-014
rhumerus -34.2958 -21.5536 -81.114
rradius 23.9036
rwrist 4.85631
rhand -17.6136 8.63814
rfingers 7.12502
rthumb 8.64326 -21.1649
lclavicle -2.3059e-014 -1.43125e-014
lhumerus -28.8328 7.88416 79.4895
lradius 23.9602
lwrist -44.6946
lhand -11.4721 -3.78736
lfingers 7.12502
lthumb 14.5657 25.6812
rfemur -6.09792 -1.03056 9.6039
rtibia 36.7562
rfoot -18.0141 13.8933
rtoes -9.78232
lfemur -10.9703 20.5693 -21.8268
ltibia 30.6815
lfoot -15.4881 -26.8306
ltoes 10.4311
277
root 7.31919 19.0266 0.221428 476.859 86.5483 -607.976
lowerback 0.370167 0.583298 -7.31391
upperback 5.66756 1.54133 -5.30091
thorax 5.69917 0.685592 -1.36549
lowerneck -8.33987 -1.00807 3.67468
upperneck 1.17321 -1.66755 -0.426806
head 1.75702 -0.806952 -0.829497
rclavicle -7.95139e-015 -3.81667e-014
rhumerus -34.3797 -21.5174 -81.2045
rradius 23.7374
rwrist 4.64551
rhand -17.1427 8.77187
rfingers 7.12502
rthumb 9.09768 -21.0119
lclavicle -7.95139e-015 -3.81667e-014
lhumerus -28.1992 7.95389 79.7916
lradius 23.5743
lwrist -44.4438
lhand -11.0975 -3.90249
lfingers 7.12502
lthumb 14.9266 25.5397
rfemur -7.15732 -1.17448 9.83489
rtibia 38.7169
rfoot -16.778 13.8059
rtoes -9.32609
lfemur -10.5692 20.1661 -21.572
ltibia 30.1985
lfoot -15.4639 -26.5331
ltoes 10.1574
278
root 7.33923 19.0414 0.218585 481.32 86.6783 -603.427
lowerback 0.598124 0.500187 -7.17909
upperback 5.72307 1.40259 -5.24304
thorax 5.63055 0.62268 -1.38788
lowerneck -8.69113 -0.950445 3.61394
upperneck 1.70596 -1.60488 -0.494409
head 1.99716 -0.773011 -0.847812
rclavicle 7.95139e-015 1.27222e-014
rhumerus -34.444 -21.5056 -81.3431
rradius 23.5594
rwrist 4.52142
rhand -16.56 8.91967
rfingers 7.12502
rthumb 9.65985 -20.8388
lclavicle 7.95139e-015 1.27222e-014
lhumerus -27.5192 7.68216 80.1888
lradius 23.2915
lwrist -43.7471
lhand -10.4635 -3.74372
lfingers 7.12502
lthumb 15.5373 25.6521
rfemur -8.27325 -1.36932 10.0859
rtibia 40.7453
rfoot -15.2357 13.7747
rtoes -8.28556
lfemur -10.1247 19.6792 -21.2969
ltibia 29.6733
lfoot -15.4389 -26.1406
ltoes 9.89473
